<?xml version="1.0" encoding="UTF-8" standalone="no"?>
<!DOCTYPE svg PUBLIC "-//W3C//DTD SVG 1.1//EN" "http://www.w3.org/Graphics/SVG/1.1/DTD/svg11.dtd">
<svg width="100%" height="100%" viewBox="0 0 200 200" version="1.1" xmlns="http://www.w3.org/2000/svg" xmlns:xlink="http://www.w3.org/1999/xlink" xml:space="preserve" xmlns:serif="http://www.serif.com/" style="fill-rule:evenodd;clip-rule:evenodd;stroke-linejoin:round;stroke-miterlimit:2;">
    <g transform="matrix(1,0,0,1,0,-306)">
        <g id="favicon" transform="matrix(0.152439,0,0,0.271739,0,306)">
            <rect x="0" y="0" width="1312" height="736" style="fill:none;"/>
            <clipPath id="_clip1">
                <rect x="0" y="0" width="1312" height="736"/>
            </clipPath>
            <g clip-path="url(#_clip1)">
                <g transform="matrix(5.703493,0,0,1.310707,-22.502641,-141.418472)">
                    <g transform="matrix(0.808173,0,0,1.972594,-198.061538,-736)">
                        <path d="M409.798,491.245C424.452,490.258 461.969,489.069 476.393,494.173C480.919,495.775 481.163,517.672 478.048,522.034C464.544,532.59 411.544,518.825 412.699,533.428C418.795,542.528 435.773,541.327 446.561,542.674C496.628,548.927 502.532,619.724 449.35,625.719C430.889,625.897 401.84,627.602 383.467,624.277C377.399,623.178 377.109,600.29 379.509,594.615C393.04,583.763 440.67,598.104 450.125,585.353L449.568,582.766C444.494,576.423 438.065,575.203 429.692,575.131C390.319,574.794 364.054,547.5 382.975,509.085C387.83,499.228 398.886,493.87 409.798,491.245Z" style="fill-rule:nonzero;"/>
                    </g>
                    <g transform="matrix(0.808173,0,0,1.972594,-198.061538,-736)">
                        <path d="M330.262,491.28C337.562,491.04 349.013,489.328 355.768,492.441C357.346,493.168 358.606,494.03 359.247,495.645C362.76,504.505 361.888,636.523 360.753,654.85C360.284,662.421 359.61,670.553 356.743,677.612C350.756,692.357 341.04,703.504 326.311,709.796C313.816,713.24 307.719,714.905 298.301,705.003C298.144,700.835 297.287,684.53 298.262,681.768C301.765,671.831 320.232,679.112 322.578,662.826C324.823,647.235 323.934,631.903 323.91,616.291L323.616,532.24C323.571,521.595 322.994,508.214 324.537,497.698C325.035,494.301 327.483,492.909 330.262,491.28Z" style="fill-rule:nonzero;"/>
                    </g>
                    <g transform="matrix(0.808173,0,0,1.972594,-198.061538,-736)">
                        <path d="M338.198,428.288C350.676,425.72 362.874,433.749 365.449,446.225C368.024,458.701 360.002,470.904 347.527,473.486C335.043,476.07 322.828,468.04 320.251,455.554C317.674,443.068 325.711,430.858 338.198,428.288Z" style="fill:rgb(204,0,54);fill-rule:nonzero;"/>
                    </g>
                </g>
            </g>
        </g>
    </g>
</svg>
