<?xml version="1.0" encoding="UTF-8" standalone="no"?>
<!DOCTYPE svg PUBLIC "-//W3C//DTD SVG 1.1//EN" "http://www.w3.org/Graphics/SVG/1.1/DTD/svg11.dtd">
<svg width="100%" height="100%" viewBox="0 0 1040 239" version="1.1" xmlns="http://www.w3.org/2000/svg" xmlns:xlink="http://www.w3.org/1999/xlink" xml:space="preserve" xmlns:serif="http://www.serif.com/" style="fill-rule:evenodd;clip-rule:evenodd;stroke-linejoin:round;stroke-miterlimit:2;">
    <g id="logo" transform="matrix(0.792683,0,0,0.324728,0,0)">
        <rect x="0" y="0" width="1312" height="736" style="fill:none;"/>
        <g transform="matrix(1,0,0,1,0.455678,-20.477864)">
            <g transform="matrix(0.808173,0,0,1.972594,-198.061538,-736)">
                <path d="M601.47,490.252C616.227,488.837 630.224,491.083 643.279,498.447C659.363,507.448 671.125,522.57 675.89,540.375C680.805,558.235 678.415,577.317 669.247,593.414C660.331,608.785 645.663,619.975 628.483,624.513C621.301,626.422 594.476,631.446 593.041,618.613C592.995,613.641 591.435,597.487 595.378,594.218C604.806,585.987 627.834,592.567 635.306,578.666C650.82,549.803 633.075,521.864 600.113,528.531C598.881,529.072 597.667,529.652 596.472,530.271C590.57,533.358 585.579,538.414 583.353,544.762C579.047,557.038 581.226,643.405 581.35,662.365C581.411,671.746 583.008,684.415 580.17,693.269C573.81,701.937 545.717,702.666 544.613,691.24C543.574,669.614 543.305,646.202 544.042,624.477C544.851,600.648 541.504,568.382 544.753,545.621C546.091,535.964 549.619,526.741 555.068,518.657C566.633,501.496 581.821,493.966 601.47,490.252Z" style="fill-rule:nonzero;"/>
            </g>
            <g transform="matrix(0.808173,0,0,1.972594,-147.6,-736)">
                <path d="M1720.37,428.369C1727.58,428.053 1737.09,426.596 1744,428.908C1746.16,429.631 1749.13,431.225 1750,433.43C1753.43,442.073 1752.11,550.863 1750.88,566.531C1750.34,573.502 1749.29,581.74 1746.41,588.127C1738.78,604.796 1724.8,617.719 1707.58,624.013C1691.15,629.868 1670.13,628.009 1654.61,620.375C1638.71,612.398 1626.68,598.361 1621.23,581.423C1614.51,560.627 1617.8,540.397 1627.71,521.365C1642.68,498.172 1666.36,488.756 1693.07,490.696C1695.66,490.883 1701.05,492.506 1701.94,494.977C1704.35,501.692 1703.1,511.144 1702.46,518.193C1700,535.755 1680.74,521.027 1667.34,532.132C1645.37,550.339 1652.46,586.407 1681.67,590.796C1695.13,592.818 1709.71,584.887 1712.57,570.84C1714.75,560.063 1714.02,548.271 1713.96,537.158L1713.67,475.034C1713.57,463.234 1713.06,450.284 1714.01,438.539C1714.45,433.011 1716.29,431.435 1720.37,428.369Z" style="fill-rule:nonzero;"/>
            </g>
            <g transform="matrix(0.808173,0,0,1.972594,-198.061538,-736)">
                <path d="M800.505,490.324C814.878,488.897 830.672,492.095 842.893,499.832C857.848,509.299 868.009,525.066 871.832,542.217C874.365,553.583 876.445,613.83 871.106,621.475C869.436,623.866 867.152,625.002 864.31,625.439C858.536,626.328 845.214,627.248 840.636,623.514C831.12,615.755 837.511,567.678 835.594,553.403C834.525,545.442 831.197,537.338 824.591,532.418C818.176,527.641 808.905,526.136 801.122,527.472C792.324,528.982 786.568,534.064 781.466,541.081C771.048,559.779 776.174,582.539 798.218,588.442C802.263,589.525 816.516,590.625 819.082,591.874C825.657,594.868 824.958,618.734 821.61,621.804C808.41,633.91 776.604,621.688 766.501,614.202C751.922,603.237 742.398,586.841 740.094,568.745C734.734,528.551 760.294,495.334 800.505,490.324Z" style="fill-rule:nonzero;"/>
            </g>
            <g transform="matrix(0.808173,0,0,1.972594,-198.061538,-736)">
                <path d="M409.798,491.245C424.452,490.258 461.969,489.069 476.393,494.173C480.919,495.775 481.163,517.672 478.048,522.034C464.544,532.59 411.544,518.825 412.699,533.428C418.795,542.528 435.773,541.327 446.561,542.674C496.628,548.927 502.532,619.724 449.35,625.719C430.889,625.897 401.84,627.602 383.467,624.277C377.399,623.178 377.109,600.29 379.509,594.615C393.04,583.763 440.67,598.104 450.125,585.353L449.568,582.766C444.494,576.423 438.065,575.203 429.692,575.131C390.319,574.794 364.054,547.5 382.975,509.085C387.83,499.228 398.886,493.87 409.798,491.245Z" style="fill-rule:nonzero;"/>
            </g>
            <g transform="matrix(0.808173,0,0,1.972594,-198.061538,-736)">
                <path d="M1102.92,559.256C1104.123,544.392 1101.602,545.628 1123.082,546.382C1136.426,546.85 1140.47,556.821 1139.92,568.238C1138.83,590.959 1143.67,622.515 1136.62,644.411C1131.49,660.51 1120.09,673.86 1104.99,681.435C1085.04,691.377 1064.21,690.258 1043.75,683.327C1031.09,678.002 1013.97,669.489 1014.48,653.253C1014.57,649.791 1016.05,646.512 1018.6,644.166C1025.22,638.074 1035.39,639.469 1043.82,639.696C1050.18,645.392 1059.44,652.346 1068.27,652.53C1114.387,653.28 1099.471,601.876 1102.92,559.256Z" style="fill-rule:nonzero;"/>
            </g>
            <g transform="matrix(0.808173,0,0,1.972594,-143.815385,-736)">
                <path d="M1150.92,491.237C1158.62,490.671 1177.9,488.594 1182.18,495.942C1188.4,534.553 1175.6,522.267 1151.18,529.99C1138.45,534.017 1140.47,556.821 1139.92,568.238C1139.416,578.746 1140.18,588.022 1140.45,600.48C1140.764,614.959 1139.765,627.657 1121.902,627.974C1102.061,628.326 1104.197,612.014 1104.213,602.859C1104.27,571.318 1097.589,533.017 1114.06,514.229C1126.47,500.08 1131.19,495.058 1150.92,491.237Z" style="fill-rule:nonzero;"/>
            </g>
            <g transform="matrix(0.808173,0,0,1.972594,-147.6,-736)">
                <path d="M1345.59,491.134C1357.64,490.701 1374.46,486.753 1377.1,501.841C1381.58,527.446 1361.29,594.368 1405.74,591.013C1446.7,587.92 1418.78,516.501 1432.05,494.157C1435.91,489.185 1459.54,489.91 1462.49,493.954C1469.02,502.92 1466.31,525.226 1466.27,536.001C1466.39,546.52 1466.74,557.378 1466.16,567.859C1464.14,604.173 1433.15,630.081 1397.12,627.431C1380.09,626.23 1364.26,618.207 1353.22,605.179C1334.75,583.122 1339.97,559.443 1339.56,532.99C1339.41,523.598 1338.41,513.631 1339.07,504.399C1339.57,497.401 1340.48,495.366 1345.59,491.134Z" style="fill-rule:nonzero;"/>
            </g>
            <g transform="matrix(0.808173,0,0,1.972594,-147.6,-736)">
                <path d="M1534.59,490.297C1543.25,489.556 1551.1,489.846 1559.55,492.053C1575.77,496.35 1589.6,506.976 1597.92,521.55C1601.41,527.586 1603.8,534.193 1604.99,541.064C1608.59,562.24 1605.52,595.99 1605.53,618.335C1605.53,627.405 1579.76,627.043 1574.75,624.434C1566.02,619.377 1569.29,605.827 1568.6,598.083C1566.35,572.731 1578.41,542.784 1551.32,528.44C1544.97,526.514 1538.92,526.655 1533.1,528.289C1501.57,540.471 1524.3,597.668 1513.88,621.307C1511.47,626.773 1480.28,631.388 1479.52,615.204C1479.17,607.646 1479.72,593.116 1479.25,585.446C1476.57,541.207 1481.25,498.133 1534.59,490.297Z" style="fill-rule:nonzero;"/>
            </g>
            <g transform="matrix(0.808173,0,0,1.972594,-147.6,-736)">
                <path d="M1245.23,489.273C1261.52,488.086 1272.17,489.541 1287.08,496.299C1273.25,496.189 1282.48,487.439 1310.93,513.651C1318.05,521.827 1323.11,531.596 1325.67,542.134C1329.88,559.623 1327.62,579.387 1317.95,594.773C1307.79,610.79 1291.65,622.078 1273.12,626.124C1254.33,630.479 1234.58,627.071 1218.33,616.673C1166.92,583.639 1180.61,501.798 1245.23,489.273Z" style="fill:rgb(204,0,54);fill-rule:nonzero;"/>
            </g>
            <g transform="matrix(0.808173,0,0,1.972594,-198.061538,-736)">
                <path d="M330.262,491.28C337.562,491.04 349.013,489.328 355.768,492.441C357.346,493.168 358.606,494.03 359.247,495.645C362.76,504.505 361.888,636.523 360.753,654.85C360.284,662.421 359.61,670.553 356.743,677.612C350.756,692.357 341.04,703.504 326.311,709.796C313.816,713.24 307.719,714.905 298.301,705.003C298.144,700.835 297.287,684.53 298.262,681.768C301.765,671.831 320.232,679.112 322.578,662.826C324.823,647.235 323.934,631.903 323.91,616.291L323.616,532.24C323.571,521.595 322.994,508.214 324.537,497.698C325.035,494.301 327.483,492.909 330.262,491.28Z" style="fill-rule:nonzero;"/>
            </g>
            <g transform="matrix(0.808173,0,0,1.972594,-198.061538,-736)">
                <path d="M971.011,491.247C980.039,490.979 993.498,489.102 1000.4,494.71C1004.25,502.223 991.775,536.553 988.935,545.873L965.011,623.878C960.831,637.307 946.299,692.425 938.523,699.461C931.234,699.468 911.877,700.984 907.836,695.003C906.445,685.509 942.547,582.982 944.201,576.189C948.953,557.275 953.855,538.4 958.907,519.565C961.245,510.766 963.384,496.413 971.011,491.247Z" style="fill-rule:nonzero;"/>
            </g>
            <g transform="matrix(0.808173,0,0,1.972594,-198.061538,-736)">
                <path d="M1057.95,491.255C1062.027,490.861 1118.095,489.808 1125.462,490.114C1132.767,490.417 1139.344,492.057 1140.539,497.001C1147.359,524.454 1137.967,527.127 1125.462,527.709C1120.091,527.96 1066.188,527.824 1060.707,529.102C1053.972,530.671 1047.938,534.373 1044.53,543.543C1036.88,567.351 1046.17,589.001 1072.99,589.804C1088.44,590.266 1095.28,593.151 1093.67,609.269C1093.14,614.494 1094.27,617.267 1091.93,622.552C1079.41,632.134 1050.41,624.494 1038.2,617.46C1022.67,608.519 1011.43,593.648 1007.08,576.261C997.105,536.535 1017.93,501.269 1057.95,491.255Z" style="fill-rule:nonzero;"/>
            </g>
            <g transform="matrix(0.808173,0,0,1.972594,-198.061538,-736)">
                <path d="M697.03,428.356C706.015,428.016 719.211,425.799 725.939,432.701C730.694,445.208 725.789,516.363 727.341,534.232C729.156,555.12 725.987,587.141 727.258,608.707C727.734,616.782 727.341,620.312 720.909,625.24C712.134,625.605 698.598,627.742 691.983,621.065C689.224,614.405 690.331,581.685 690.292,572.692C690.008,542.703 690.031,512.713 690.362,482.726C690.465,467.911 689.017,451.166 690.942,436.594C691.516,432.25 693.623,430.553 697.03,428.356Z" style="fill-rule:nonzero;"/>
            </g>
            <g transform="matrix(0.808173,0,0,1.972594,-198.061538,-736)">
                <path d="M885.052,491.374C891.721,491.117 905.574,489.088 911.205,493.148C919.333,499.01 932.581,573.624 934.147,586.175C931.107,592.7 929.428,595.87 923.926,600.481C919.7,601.542 913.065,603.205 908.975,601.135C905.43,599.341 903.781,594.17 902.471,590.63C898.467,579.814 875.238,501.303 878.167,496C879.697,493.23 882.153,492.177 885.052,491.374Z" style="fill-rule:nonzero;"/>
            </g>
            <g transform="matrix(0.808173,0,0,1.972594,-198.061538,-736)">
                <path d="M338.198,428.288C350.676,425.72 362.874,433.749 365.449,446.225C368.024,458.701 360.002,470.904 347.527,473.486C335.043,476.07 322.828,468.04 320.251,455.554C317.674,443.068 325.711,430.858 338.198,428.288Z" style="fill:rgb(204,0,54);fill-rule:nonzero;"/>
            </g>
        </g>
    </g>
</svg>
